<svg xmlns="http://www.w3.org/2000/svg" viewBox="0 0 283.46 283.46"><g data-name="Layer 1"><path fill="#fd8f9f" fill-rule="evenodd" d="M144.79,198.58l-17.46,51.18c-7.08,20.72-31.81,27.85-46.44,12.17a21.82,21.82,0,0,1-27.14-19.72c-19.41-9.07-20.31-34.8-2.75-47.93l43.29-32.4-54.07-.76c-21.91-.32-36.31-21.65-25.94-40.4A21.86,21.86,0,0,1,24.65,88.8c2.63-21.27,26.82-30.06,44.73-17.43l44.19,31.16-16-51.66C91.14,30,106.83,9.56,128,13.72a21.85,21.85,0,0,1,33.57,0C182.72,9.56,198.42,30,192,50.87l-16,51.66,44.19-31.17c17.91-12.63,42.09-3.84,44.73,17.44a21.84,21.84,0,0,1,10.37,31.91c10.37,18.76-4,40.08-25.94,40.4l-54.06.77,43.29,32.39c17.54,13.12,16.67,38.86-2.76,47.93a21.82,21.82,0,0,1-27.14,19.72c-14.61,15.67-39.36,8.56-46.44-12.18Z"/><path fill="#fd697f" fill-rule="evenodd" d="M144.79,198.58l0,0V5.85h.95a21.82,21.82,0,0,1,15.84,7.85c20.84-4,36.9,16.16,30.4,37.15l-16,51.66,44.19-31.17c17.91-12.63,42.08-3.84,44.73,17.44a21.84,21.84,0,0,1,10.37,31.91c10.38,18.76-4,40.08-25.94,40.4l-54.06.77,43.29,32.39c17.54,13.12,16.66,38.86-2.76,47.93a21.82,21.82,0,0,1-27.14,19.72c-14.61,15.68-39.36,8.56-46.44-12.18Z"/><circle cx="144.77" cy="145.12" r="28.55" fill="#ffda44" transform="rotate(-45 144.769 145.115)"/><path fill="#ffb655" fill-rule="evenodd" d="M144.77,116.56a28.56,28.56,0,0,1,0,57.11Z"/></g></svg>